<?xml version="1.0" encoding="UTF-8"?>
<!DOCTYPE svg PUBLIC "-//W3C//DTD SVG 1.1//EN" "http://www.w3.org/Graphics/SVG/1.1/DTD/svg11.dtd">
<!-- Creator: CorelDRAW -->
<svg xmlns="http://www.w3.org/2000/svg" xml:space="preserve" width="90.2746mm" height="18.2992mm" version="1.1" style="shape-rendering:geometricPrecision; text-rendering:geometricPrecision; image-rendering:optimizeQuality; fill-rule:evenodd; clip-rule:evenodd"
viewBox="0 0 20098.31 4074.05"
 xmlns:xlink="http://www.w3.org/1999/xlink"
 xmlns:xodm="http://www.corel.com/coreldraw/odm/2003">
 <defs>
  <style type="text/css">
   <![CDATA[
    .fil3 {fill:#00A7E6}
    .fil1 {fill:#211F20}
    .fil2 {fill:#211F20;fill-rule:nonzero}
    .fil0 {fill:#211F20;fill-rule:nonzero}
   ]]>
  </style>
 </defs>
 <g id="Layer_x0020_1">
  <metadata id="CorelCorpID_0Corel-Layer"/>
  <path class="fil0" d="M3072.14 1891.31l0 -765.67 -571.39 0 0 -605.68 -925.65 0 0 605.68 -359.98 0 0 765.67 359.98 0 0 1011.37c0,565.69 205.69,1171.37 1097.08,1171.37 182.85,0 302.83,-17.14 399.96,-51.43l0 -777.11c-45.71,5.72 -102.84,17.14 -177.13,17.14 -285.69,0 -394.26,-154.26 -394.26,-457.11l0 -914.23 571.39 0z"/>
  <path class="fil0" d="M5218.13 1891.31l0 -765.67 -571.39 0 0 -605.68 -925.65 0 0 605.68 -359.98 0 0 765.67 359.98 0 0 1011.37c0,565.69 205.69,1171.37 1097.08,1171.37 182.85,0 302.83,-17.14 399.96,-51.43l0 -777.11c-45.71,5.72 -102.84,17.14 -177.13,17.14 -285.69,0 -394.26,-154.26 -394.26,-457.11l0 -914.23 571.39 0z"/>
  <path class="fil0" d="M8579.23 1891.31l0 -765.67 -571.39 0 0 -605.68 -925.65 0 0 605.68 -359.98 0 0 765.67 359.98 0 0 1011.37c0,565.69 205.69,1171.37 1097.08,1171.37 182.85,0 302.83,-17.14 399.96,-51.43l0 -777.11c-45.71,5.72 -102.84,17.14 -177.13,17.14 -285.69,0 -394.26,-154.26 -394.26,-457.11l0 -914.23 571.39 0z"/>
  <path class="fil0" d="M10719.51 1102.8l0 1565.62c0,319.99 -188.57,497.12 -462.84,497.12 -251.42,0 -462.84,-165.71 -462.84,-497.12l0 -1565.62 -925.65 0 0 1817.04c0,582.81 337.11,1154.21 1062.79,1154.21 377.12,0 628.54,-148.54 788.53,-337.11l0 262.84 931.37 0 0 -2896.97 -931.37 0z"/>
  <path class="fil0" d="M14145.44 0l0 1388.49c-171.43,-205.69 -428.55,-354.26 -817.12,-354.26 -902.79,0 -1388.49,759.97 -1388.49,1519.91 0,759.97 485.7,1519.91 1388.49,1519.91 388.57,0 645.69,-148.54 817.12,-354.26l0 279.99 925.65 0 0 -3999.78 -925.65 0zm-651.41 3171.26c-382.82,0 -617.1,-262.84 -617.1,-617.12 0,-359.98 234.28,-622.82 617.1,-622.82 348.56,0 622.82,234.28 622.82,622.82 0,382.84 -274.26,617.12 -622.82,617.12z"/>
  <path class="fil0" d="M16857.12 1034.23c-828.54,0 -1497.07,662.83 -1497.07,1519.91 0,902.81 651.39,1519.91 1628.49,1519.91 565.67,0 1011.37,-251.4 1245.64,-611.38l-651.39 -388.54c-91.44,108.56 -297.13,251.4 -594.26,251.4 -354.28,0 -628.54,-154.26 -725.68,-491.4l2091.3 0c114.28,-1217.06 -639.97,-1799.89 -1497.04,-1799.89zm-594.26 1239.92c85.71,-319.97 331.41,-491.4 622.82,-491.4 319.99,0 559.97,154.29 628.54,491.4l-1251.37 0z"/>
  <path class="fil1" d="M489.93 0.02c255.72,0 463.04,207.3 463.04,463.01 0,255.74 -207.32,463.08 -463.04,463.08 -255.72,0 -463.06,-207.34 -463.06,-463.08 0,-255.72 207.34,-463.01 463.06,-463.01z"/>
  <polygon class="fil2" points="5507.35,4074.05 6433,4074.05 6433,1125.18 5507.35,1125.18 "/>
  <path class="fil3" d="M19428.18 2733.78c-370.09,0 -670.13,300.02 -670.13,670.11 0,370.11 300.05,670.15 670.13,670.15 370.09,0 670.13,-300.05 670.13,-670.15 0,-370.09 -300.05,-670.11 -670.13,-670.11zm0 365.57c-168.2,0 -304.61,136.32 -304.61,304.54 0,168.22 136.41,304.59 304.61,304.59 168.18,0 304.57,-136.36 304.57,-304.59 0,-168.22 -136.39,-304.54 -304.57,-304.54z"/>
  <path class="fil1" d="M5997.02 0.02c255.72,0 463.04,207.3 463.04,463.01 0,255.74 -207.32,463.08 -463.04,463.08 -255.72,0 -463.06,-207.34 -463.06,-463.08 0,-255.72 207.34,-463.01 463.06,-463.01z"/>
  <polygon class="fil2" points="0.27,4074.05 925.92,4074.05 925.92,1125.18 0.27,1125.18 "/>
 </g>
</svg>
