<svg width="342" height="70" viewBox="0 0 342 70" fill="none" xmlns="http://www.w3.org/2000/svg">
<g clip-path="url(#clip0_401_73)">
<path d="M52.1537 32.1075V19.1092H42.4536V8.827H26.7395V19.1092H20.6284V32.1075H26.7395V49.2768C26.7395 58.8801 30.2314 69.1623 45.3639 69.1623C48.468 69.1623 50.5048 68.8714 52.1537 68.2892V55.0968C51.3777 55.1939 50.4079 55.3878 49.1467 55.3878C44.2967 55.3878 42.4536 52.769 42.4536 47.6277V32.1075H52.1537Z" fill="#211F20"/>
<path d="M88.5847 32.1075V19.1092H78.8846V8.827H63.1705V19.1092H57.0594V32.1075H63.1705V49.2768C63.1705 58.8801 66.6623 69.1623 81.7949 69.1623C84.899 69.1623 86.9358 68.8714 88.5847 68.2892V55.0968C87.8087 55.1939 86.8389 55.3878 85.5777 55.3878C80.7277 55.3878 78.8846 52.769 78.8846 47.6277V32.1075H88.5847Z" fill="#211F20"/>
<path d="M145.644 32.1075V19.1092H135.944V8.827H120.23V19.1092H114.118V32.1075H120.23V49.2768C120.23 58.8801 123.721 69.1623 138.854 69.1623C141.958 69.1623 143.995 68.8714 145.644 68.2892V55.0968C144.868 55.1939 143.898 55.3878 142.637 55.3878C137.787 55.3878 135.944 52.769 135.944 47.6277V32.1075H145.644Z" fill="#211F20"/>
<path d="M181.978 18.7215V45.2999C181.978 50.7322 178.777 53.7392 174.121 53.7392C169.852 53.7392 166.263 50.926 166.263 45.2999V18.7215H150.549V49.5681C150.549 59.4621 156.272 69.1623 168.591 69.1623C174.993 69.1623 179.262 66.6407 181.978 63.4394V67.9015H197.789V18.7216H181.978L181.978 18.7215Z" fill="#211F20"/>
<path d="M240.137 0V23.5714C237.227 20.0796 232.862 17.5574 226.266 17.5574C210.94 17.5574 202.694 30.4589 202.694 43.3599C202.694 56.2614 210.94 69.1623 226.266 69.1623C232.862 69.1623 237.227 66.6407 240.137 63.1483V67.9015H255.852V0L240.137 0ZM229.079 53.8363C222.58 53.8363 218.603 49.3742 218.603 43.3599C218.603 37.2487 222.58 32.7867 229.079 32.7867C234.996 32.7867 239.652 36.7639 239.652 43.3599C239.652 49.8591 234.996 53.8363 229.079 53.8363Z" fill="#211F20"/>
<path d="M286.172 17.5574C272.106 17.5574 260.757 28.8098 260.757 43.3599C260.757 58.6862 271.815 69.1623 288.403 69.1623C298.006 69.1623 305.572 64.8945 309.549 58.7833L298.491 52.1874C296.939 54.0303 293.447 56.4552 288.403 56.4552C282.388 56.4552 277.732 53.8365 276.083 48.1131H311.586C313.526 27.4519 300.721 17.5576 286.172 17.5576L286.172 17.5574ZM276.083 38.6067C277.538 33.1748 281.71 30.2645 286.657 30.2645C292.089 30.2645 296.163 32.8838 297.327 38.6067H276.083H276.083Z" fill="#211F20"/>
<path fill-rule="evenodd" clip-rule="evenodd" d="M8.31732 0.000339508C12.6585 0.000339508 16.178 3.51953 16.178 7.86054C16.178 12.2021 12.6585 15.7219 8.31732 15.7219C3.97614 15.7219 0.456268 12.2021 0.456268 7.86054C0.456268 3.51936 3.97614 0.000339508 8.31732 0.000339508Z" fill="#211F20"/>
<path d="M93.4946 69.1623H109.209V19.1014H93.4946V69.1623Z" fill="#211F20"/>
<path fill-rule="evenodd" clip-rule="evenodd" d="M329.819 46.4095C323.536 46.4095 318.443 51.5027 318.443 57.7855C318.443 64.0686 323.536 69.1622 329.819 69.1622C336.102 69.1622 341.195 64.0684 341.195 57.7855C341.195 51.5027 336.101 46.4095 329.819 46.4095ZM329.819 52.6155C326.963 52.6155 324.648 54.9297 324.648 57.7855C324.648 60.6412 326.963 62.9563 329.819 62.9563C332.674 62.9563 334.989 60.6414 334.989 57.7855C334.989 54.9297 332.674 52.6155 329.819 52.6155Z" fill="#F55356"/>
<path fill-rule="evenodd" clip-rule="evenodd" d="M101.807 0.000339508C106.149 0.000339508 109.668 3.51953 109.668 7.86054C109.668 12.2021 106.149 15.7219 101.807 15.7219C97.4662 15.7219 93.9463 12.2021 93.9463 7.86054C93.9463 3.51936 97.4662 0.000339508 101.807 0.000339508Z" fill="#211F20"/>
<path d="M0.00469971 69.1623H15.7188V19.1014H0.00469971V69.1623Z" fill="#211F20"/>
</g>
<defs>
<clipPath id="clip0_401_73">
<rect width="341.195" height="69.1623" fill="white"/>
</clipPath>
</defs>
</svg>
